Coordinates
version=1
nRows=16
nColumns=36
inDegrees=yes

Units are S.I. units (second, meters, Newtons, ...)
If the header above contains a line with 'inDegrees', this indicates whether rotational values are in degrees (yes) or radians (no).

endheader
time	pelvis_tilt	pelvis_list	pelvis_rotation	pelvis_tx	pelvis_ty	pelvis_tz	hip_flexion_r	hip_adduction_r	hip_rotation_r	knee_angle_r	knee_angle_r_beta	ankle_angle_r	subtalar_angle_r	mtp_angle_r	hip_flexion_l	hip_adduction_l	hip_rotation_l	knee_angle_l	knee_angle_l_beta	ankle_angle_l	subtalar_angle_l	mtp_angle_l	lumbar_extension	lumbar_bending	lumbar_rotation	arm_flex_r	arm_add_r	arm_rot_r	elbow_flex_r	pro_sup_r	arm_flex_l	arm_add_l	arm_rot_l	elbow_flex_l	pro_sup_l
      3.13333330	     -4.34651857	      0.05318396	      1.93339209	      0.37404488	      0.94063447	     -0.03205603	      1.38049305	     -8.20779180	     -5.30920005	      0.57120291	      0.00996937	      2.75586451	     -4.36222183	     -7.49999987	      2.23242646	     -5.29703243	      2.54230818	      0.36273128	      0.00633086	      0.69037547	     -1.56156326	     -7.49999987	      4.07767533	     -0.66278271	     15.82391919	    -70.74207371	    -62.31918701	   -166.36656975	    101.60734468	     60.78212200	     84.26814330	    -62.49991043	     15.21131083	     96.56200421	     75.39667093
      3.15000000	     -4.06673198	      0.07478190	      1.85388929	      0.37378476	      0.94086677	     -0.03212545	      1.12414679	     -8.23775828	     -5.15989413	      0.58954684	      0.01028953	      2.71951895	     -4.52516320	     -7.49999987	      1.89567958	     -5.28419725	      2.72766547	      0.35170425	      0.00613840	      0.49336269	     -2.03639610	     -7.49999987	      3.52776318	     -0.49963983	     15.02407512	    -70.69522226	    -63.81022675	   -167.13471835	    102.35704924	     61.38027472	     83.86492660	    -64.00558886	     14.01478306	     97.09126668	     79.25571131
      3.16666670	     -4.06182748	      0.09865214	      1.79059007	      0.37392899	      0.94095032	     -0.03201640	      1.16063110	     -8.28228907	     -5.15107933	      0.59863521	      0.01044816	      2.64826816	     -4.57054816	     -7.49999987	      1.85575292	     -5.26295637	      2.61390388	      0.35400449	      0.00617854	      0.53665387	     -1.91542799	     -7.49999987	      3.57512419	     -0.49871126	     15.05822393	    -70.73638249	    -63.88866249	   -167.27779191	    102.62571603	     61.37064201	     84.51350532	    -63.92603999	     14.21428180	     97.11516749	     78.24648864
      3.18333330	     -4.16219803	      0.10323047	      1.73877310	      0.37396260	      0.94078734	     -0.03200574	      1.30888798	     -8.29915619	     -5.24472060	      0.60598355	      0.01057641	      2.59374888	     -4.46052765	     -7.49999987	      1.93830703	     -5.26618309	      2.55811770	      0.35902259	      0.00626613	      0.52600031	     -1.91186866	     -7.49999987	      3.77207744	     -0.46710366	     15.09455377	    -70.72257178	    -63.99321403	   -167.43132329	    102.39276950	     61.35770668	     84.78620838	    -63.94238537	     14.54107816	     97.18457053	     77.49704059
      3.20000000	     -4.11046690	      0.13904883	      1.72267803	      0.37408434	      0.94099061	     -0.03194561	      1.26992674	     -8.35528089	     -5.26749716	      0.60599965	      0.01057669	      2.61569641	     -4.48971738	     -7.49999987	      1.86702268	     -5.22929306	      2.57311942	      0.36225077	      0.00632247	      0.52744327	     -2.00419700	     -7.49999987	      3.63805526	     -0.45016911	     15.00502152	    -70.65745699	    -64.05538923	   -167.64791684	    102.23946092	     61.37078741	     85.35263777	    -64.15598483	     14.84050912	     96.81241275	     76.69903600
      3.21666670	     -4.09102103	      0.14459943	      1.72496301	      0.37404886	      0.94100966	     -0.03191482	      1.25439338	     -8.35518014	     -5.16061236	      0.61274699	      0.01069445	      2.61780461	     -4.57888381	     -7.49999987	      1.85381405	     -5.25085970	      2.75767044	      0.35685682	      0.00622833	      0.47185802	     -2.23264023	     -7.49999987	      3.53547898	     -0.44873912	     14.90215240	    -70.63521138	    -64.23812151	   -167.95517986	    101.99923879	     61.40189062	     86.06447712	    -64.29914651	     15.34922833	     96.61926528	     76.15619951
      3.23333330	     -4.08620582	      0.14786301	      1.77329807	      0.37408083	      0.94109206	     -0.03187447	      1.22721351	     -8.34448558	     -5.22360563	      0.61480179	      0.01073032	      2.69907421	     -4.46950511	     -7.49999987	      1.88312358	     -5.28620366	      2.84011385	      0.35850936	      0.00625717	      0.40652024	     -2.42764956	     -7.49999987	      3.47286822	     -0.50631431	     14.77803019	    -70.66245402	    -64.39348041	   -168.22412404	    101.69082225	     61.78360114	     87.41302466	    -64.62526245	     16.85323787	     96.27215950	     77.20268865
      3.25000000	     -4.09184106	      0.15482100	      1.77018736	      0.37413613	      0.94113707	     -0.03184190	      1.21644892	     -8.34492836	     -5.19256698	      0.62957071	      0.01098808	      2.80132461	     -4.44121213	     -7.49999987	      1.92323852	     -5.29446695	      2.70833892	      0.35571862	      0.00620846	      0.56496183	     -2.10937315	     -7.49999987	      3.49914509	     -0.49954827	     14.96654665	    -70.40882275	    -64.05416596	   -168.00774232	    101.91807223	     61.74483955	     87.46165000	    -64.22579100	     16.69569022	     96.40387771	     75.86387358
      3.26666670	     -4.13232356	      0.13022536	      1.77743321	      0.37423225	      0.94103739	     -0.03182240	      1.24622192	     -8.31239262	     -5.23614553	      0.64264418	      0.01121626	      2.86839280	     -4.34126172	     -7.49999987	      1.98589035	     -5.31791220	      2.72253548	      0.35169794	      0.00613829	      0.51381640	     -2.29182106	     -7.49999987	      3.55657707	     -0.46510877	     15.10215042	    -70.09897656	    -63.80367548	   -167.82580090	    102.00288137	     61.71990808	     87.43780104	    -63.98095645	     16.57108986	     96.60813817	     75.19005076
      3.28333330	     -4.30721416	      0.09670131	      1.81361020	      0.37432198	      0.94090439	     -0.03189456	      1.40963791	     -8.27385475	     -5.25220412	      0.65226838	      0.01138423	      2.83340414	     -4.31745964	     -7.49999987	      2.18334480	     -5.34025141	      2.60581991	      0.35280900	      0.00615768	      0.45412106	     -2.26385096	     -7.49999987	      3.84558424	     -0.45951726	     15.15848063	    -70.01446373	    -63.75473377	   -167.75027282	    101.96594191	     61.69084985	     87.42098209	    -63.81109954	     16.57518144	     96.76996903	     74.78251720
      3.30000000	     -4.10961102	      0.14071361	      1.74904671	      0.37431964	      0.94121122	     -0.03171333	      1.16653041	     -8.31003240	     -4.91436487	      0.64399925	      0.01123991	      2.77872915	     -4.71415561	     -7.49999987	      1.96028270	     -5.29938078	      2.24685995	      0.36493971	      0.00636940	      0.59521587	     -1.94861580	     -7.49999987	      3.47011648	     -0.52461439	     15.27191780	    -69.70955522	    -63.38233227	   -167.69345672	    101.77155179	     61.67534016	     87.71930316	    -63.75540372	     16.28837648	     96.92189440	     74.11853221
      3.31666670	     -4.17189795	      0.12531208	      1.81605078	      0.37439480	      0.94108702	     -0.03193714	      1.20482499	     -8.30208221	     -5.13614933	      0.65481101	      0.01142861	      2.79850622	     -4.35770661	     -7.49999987	      2.05133299	     -5.28454796	      2.44427639	      0.37406962	      0.00652875	      0.31093867	     -2.63468671	     -7.49999987	      3.56836529	     -0.49693869	     15.36852449	    -70.48939451	    -63.25259061	   -169.06235460	    101.35916894	     62.29006634	     87.85659638	    -63.32123713	     15.65333671	     96.82751959	     80.28055837
      3.33333330	     -4.33747236	      0.15266776	      1.79510603	      0.37463795	      0.94093360	     -0.03185985	      1.37420762	     -8.32988027	     -5.18166874	      0.65623908	      0.01145353	      2.71988862	     -4.20778475	     -7.49999987	      2.23659396	     -5.24152060	      2.15414740	      0.38907766	      0.00679069	      0.18769179	     -2.44624884	     -7.49999987	      3.96433105	     -0.50587030	     15.27902119	    -70.63450650	    -63.34748939	   -169.32012392	    101.08120007	     62.16605240	     87.76700196	    -63.33453386	     15.83227265	     96.77162796	     79.27648265
      3.35000000	     -4.13510370	      0.19968369	      1.77202787	      0.37452088	      0.94102316	     -0.03178608	      1.17244510	     -8.38361051	     -5.13105808	      0.63767707	      0.01112956	      2.71025125	     -4.29437114	     -7.49999987	      2.00756893	     -5.18713866	      1.86371901	      0.38951607	      0.00679834	      0.31523205	     -2.09762577	     -7.49999987	      3.67313512	     -0.57264640	     15.16313542	    -70.94799854	    -63.71645690	   -170.18145287	    100.51788958	     62.01007995	     88.10595304	    -63.46005498	     15.83632584	     96.65230023	     78.23871249
      3.36666670	     -4.10193759	      0.21727835	      1.80690324	      0.37442699	      0.94111563	     -0.03178955	      1.12424754	     -8.40896635	     -5.15731824	      0.62227591	      0.01086076	      2.66211623	     -4.28913469	     -7.49999987	      1.98016270	     -5.15249973	      1.94674913	      0.38767990	      0.00676629	      0.19150334	     -2.48955088	     -7.49999987	      3.68319536	     -0.57341909	     15.05205744	    -71.25748265	    -64.15443790	   -171.14873391	     99.73035472	     61.89054337	     88.13159908	    -63.51187012	     15.92365378	     96.58235794	     77.80225143
      3.38333330	     -4.09495580	      0.22949866	      1.81199773	      0.37439833	      0.94108325	     -0.03177461	      1.12088426	     -8.41544686	     -5.13936262	      0.61485010	      0.01073116	      2.68700421	     -4.25979357	     -7.49999987	      1.96019016	     -5.13318759	      1.81097112	      0.38708777	      0.00675596	      0.16045634	     -2.53565469	     -7.49999987	      3.75444606	     -0.54787920	     15.04679953	    -71.31134828	    -64.28769841	   -171.71426349	     98.87143843	     61.79525296	     87.97598114	    -63.40454867	     15.87049871	     96.40625024	     77.37221078
